<?xml version="1.0" encoding="UTF-8"?>
<svg width="643px" height="643px" viewBox="0 0 643 643" version="1.1" xmlns="http://www.w3.org/2000/svg" xmlns:xlink="http://www.w3.org/1999/xlink" style="background: #353259;">
    <!-- Generator: Sketch 49.2 (51160) - http://www.bohemiancoding.com/sketch -->
    <title>Teams/Carlton</title>
    <desc>Created with Sketch.</desc>
    <defs>
        <rect id="path-1" x="0" y="0" width="643" height="643"></rect>
    </defs>
    <g id="Teams/Carlton" stroke="none" stroke-width="1" fill="none" fill-rule="evenodd">
        <mask id="mask-2" fill="white">
            <use xlink:href="#path-1"></use>
        </mask>
        <use id="Mask" fill="#272451" xlink:href="#path-1"></use>
        <path d="M452.591797,263.556431 L466.529297,208.9744 C364.616536,190.711379 289.520182,195.242629 241.240234,222.56815 C192.960286,249.893671 162.880208,285.133254 151,328.2869 C185.106771,412.73091 242.729818,454.952916 323.869141,454.952916 C405.008464,454.952916 461.246745,437.670364 492.583984,403.105259 L471.142578,363.163853 C416.947266,398.231562 367.85612,413.65539 323.869141,409.435338 C257.888672,403.105259 214.560547,360.991978 212.894531,328.2869 C211.228516,295.581822 276.314453,247.872838 333.710938,247.656041 C371.97526,247.511509 411.602214,252.81164 452.591797,263.556431 Z" id="Path-3" fill="#FFFFFF" mask="url(#mask-2)"></path>
        <path d="M418.816551,348.619141 L418.816551,381.013672 C353.679833,393.150391 310.722801,394.695313 289.945458,385.648438 C258.779442,372.078125 236.070458,342.769531 236.000145,331.947266 C235.929833,321.125 261.381005,266 327.408348,266 C371.426578,266 399.000145,269.242188 410.129051,275.726562 L410.129051,311.126953 C385.725406,302.440755 365.407697,298.078125 349.175926,298.039062 C324.82827,297.980469 280.877098,308.824769 274.379051,328.721955 C267.881005,348.619141 319.785301,357.375 337.914208,357.375 C350.000145,357.375 376.967593,354.45638 418.816551,348.619141 Z" id="Path-4" fill="#FFFFFF" mask="url(#mask-2)"></path>
        <polygon id="Path-5" fill="#FFFFFF" mask="url(#mask-2)" points="262 467.503906 262 502.927734 360.847656 502.927734 360.847656 467.503906 324.271484 467.503906 324.271484 350.060547 349.333984 350.060547 349.333984 309.931641 324.271484 309.931641 324.271484 184.210938 384.720703 184.210938 384.720703 263.21875 417.501953 263.21875 417.501953 140 378.412109 140 378.412109 152.779297 317.603516 152.779297 317.603516 140 291.400391 140 291.400391 467.503906"></polygon>
    </g>
</svg>